<svg width="1538" height="2498" viewBox="0 0 1538 2498" fill="none" xmlns="http://www.w3.org/2000/svg">
<path d="M1212.47 1383.09C1115.23 1383.09 1028.05 1426.18 968.351 1494L815.374 1385.71C831.613 1341 840.938 1292.99 840.938 1242.74C840.938 1193.36 831.938 1146.16 816.233 1102.11L968.868 994.96C1028.56 1062.45 1115.51 1105.29 1212.47 1105.29C1391.96 1105.29 1538 959.273 1538 779.766C1538 600.259 1391.96 454.239 1212.47 454.239C1032.99 454.239 886.945 600.259 886.945 779.766C886.945 811.896 891.8 842.878 900.511 872.22L747.774 979.424C683.971 900.271 592.106 845.005 487.438 828.135V644.056C634.894 613.085 745.996 482.073 745.996 325.527C745.996 146.02 599.952 0 420.469 0C240.985 0 94.9415 146.02 94.9415 325.527C94.9415 479.976 203.166 609.372 347.672 642.554V829.024C150.46 863.641 0 1035.75 0 1242.74C0 1450.74 151.95 1623.48 350.586 1656.92V1853.82C204.602 1885.91 94.9415 2016.1 94.9415 2171.6C94.9415 2351.1 240.985 2497.12 420.469 2497.12C599.952 2497.12 745.996 2351.1 745.996 2171.6C745.996 2016.1 636.336 1885.91 490.352 1853.82V1656.91C590.892 1639.98 681.849 1587.08 746.284 1508.06L900.283 1617.06C891.734 1646.14 886.945 1676.82 886.945 1708.62C886.945 1888.13 1032.99 2034.15 1212.47 2034.15C1391.96 2034.15 1538 1888.13 1538 1708.62C1538 1529.11 1391.96 1383.09 1212.47 1383.09ZM1212.47 621.935C1299.51 621.935 1370.3 692.755 1370.3 779.766C1370.3 866.777 1299.51 937.591 1212.47 937.591C1125.44 937.591 1054.65 866.777 1054.65 779.766C1054.65 692.755 1125.44 621.935 1212.47 621.935ZM262.638 325.527C262.638 238.516 333.434 167.702 420.469 167.702C507.504 167.702 578.294 238.516 578.294 325.527C578.294 412.538 507.504 483.353 420.469 483.353C333.434 483.353 262.638 412.538 262.638 325.527ZM578.294 2171.6C578.294 2258.61 507.504 2329.42 420.469 2329.42C333.434 2329.42 262.638 2258.61 262.638 2171.6C262.638 2084.58 333.434 2013.77 420.469 2013.77C507.504 2013.77 578.294 2084.58 578.294 2171.6ZM420.457 1462.85C299.069 1462.85 200.318 1364.12 200.318 1242.74C200.318 1121.35 299.069 1022.6 420.457 1022.6C541.839 1022.6 640.589 1121.35 640.589 1242.74C640.589 1364.12 541.839 1462.85 420.457 1462.85ZM1212.47 1866.45C1125.44 1866.45 1054.65 1795.63 1054.65 1708.62C1054.65 1621.61 1125.44 1550.8 1212.47 1550.8C1299.51 1550.8 1370.3 1621.61 1370.3 1708.62C1370.3 1795.63 1299.51 1866.45 1212.47 1866.45Z" fill="#555555"/>
</svg>
