<svg width="2500" height="1594" viewBox="0 0 2500 1594" fill="none" xmlns="http://www.w3.org/2000/svg">
<g clip-path="url(#clip0_826_4)">
<path d="M1607.46 507.574L1389.85 578.851L1200.32 662.547L1147.41 676.586C1133.91 689.545 1119.87 702.505 1104.21 715.464C1087.47 730.043 1071.81 743.003 1059.93 752.722C1046.43 763.522 1026.99 782.961 1016.73 795.38C1001.61 814.279 989.733 834.258 984.873 849.377C975.694 876.916 980.014 904.994 997.833 930.913C1019.97 963.852 1064.79 997.33 1116.63 1020.01C1143.09 1031.89 1187.9 1046.47 1221.38 1055.11C1277 1069.15 1384.99 1084.81 1444.39 1086.97C1456.27 1087.51 1472.47 1087.51 1473.01 1086.97C1474.09 1085.89 1483.81 1068.61 1494.07 1046.47C1530.79 971.951 1556.7 901.755 1571.28 842.358C1579.92 806.179 1586.4 758.122 1591.26 700.885C1592.34 684.686 1592.88 631.228 1591.8 613.409C1590.18 583.711 1587.48 559.952 1583.7 536.193C1583.16 532.953 1582.62 529.713 1583.16 529.713C1583.7 529.173 1585.86 528.633 1612.86 521.074L1607.46 507.574ZM1557.78 536.733C1559.94 536.733 1564.8 587.491 1566.42 619.349C1566.96 625.829 1566.42 630.688 1566.42 630.688C1565.34 630.688 1538.89 615.029 1519.45 603.15C1503.25 592.89 1471.93 571.831 1467.07 568.051C1465.45 566.972 1465.45 566.972 1478.95 562.112C1501.63 554.012 1555.62 536.733 1557.78 536.733ZM1446.55 573.451C1448.17 573.451 1451.95 575.611 1461.13 581.011C1495.15 602.07 1541.05 627.988 1561.02 636.628C1566.96 639.328 1567.5 638.248 1554 647.967C1524.31 668.486 1486.51 688.465 1441.15 708.444C1433.05 712.224 1426.57 714.924 1426.03 714.924C1425.49 714.924 1426.57 710.604 1428.19 705.745C1438.99 664.707 1445.47 623.129 1446.01 590.19C1444.93 573.451 1444.93 573.451 1446.55 573.451ZM1423.87 582.091C1424.95 583.171 1424.41 619.889 1422.79 630.148C1420.09 653.907 1415.23 676.586 1407.67 701.965C1406.05 707.904 1404.43 713.304 1403.89 713.304C1403.35 714.384 1380.67 692.245 1373.11 683.606C1360.15 669.026 1350.43 653.907 1342.88 639.328C1339.1 631.768 1333.16 617.189 1333.7 617.189C1336.4 615.029 1423.33 581.551 1423.87 582.091ZM1316.42 624.209C1317.5 624.749 1318.58 627.449 1319.12 630.148C1324.52 644.728 1336.4 665.787 1346.66 678.746C1357.99 693.325 1372.57 709.524 1384.45 719.784C1388.23 723.024 1392.01 726.264 1392.55 726.803C1393.63 727.883 1393.63 727.883 1367.17 737.603C1335.86 749.482 1302.38 761.362 1263.5 773.781C1254.32 777.021 1245.14 779.721 1235.96 782.961C1234.34 783.501 1234.88 782.421 1239.2 775.941C1258.64 745.703 1287.8 686.846 1304 644.728C1306.7 637.708 1309.4 630.148 1309.94 628.528C1310.48 626.369 1311.56 625.289 1313.72 624.209C1314.8 624.749 1315.88 624.209 1316.42 624.209ZM1283.48 637.708C1284.02 638.248 1275.38 655.527 1267.28 671.726C1251.08 703.045 1233.8 733.283 1210.58 770.541C1206.8 777.021 1203.02 782.961 1202.48 783.501C1201.4 784.581 1201.4 784.581 1198.7 779.181C1193.3 768.381 1188.44 753.802 1186.28 740.843C1183.58 727.883 1184.12 705.745 1187.36 691.705C1189.52 681.446 1189.52 681.446 1194.38 679.286C1214.36 669.026 1282.4 637.168 1283.48 637.708ZM1566.96 649.587V656.607C1566.96 693.325 1563.18 743.543 1557.24 780.261C1556.16 786.74 1555.62 792.14 1555.08 792.14C1555.08 792.14 1550.22 791.06 1544.83 789.44C1519.99 781.881 1493.53 770.541 1469.23 757.042C1453.03 748.402 1429.81 733.823 1430.89 733.283C1430.89 733.283 1437.91 729.503 1446.01 725.184C1478.41 708.444 1509.19 690.085 1536.19 672.266C1546.45 665.787 1561.56 654.447 1564.8 651.747L1566.96 649.587ZM1159.28 698.185C1159.82 698.185 1159.82 699.265 1158.74 705.205C1158.2 709.524 1157.12 717.624 1157.12 723.024C1156.04 746.782 1159.82 764.602 1171.7 788.9C1174.94 795.38 1177.64 801.32 1177.64 801.32C1176.56 802.4 1067.49 834.258 1033.47 843.438C1023.21 846.138 1014.57 848.837 1013.49 848.837C1012.41 849.377 1012.41 848.837 1012.41 846.138C1016.19 821.839 1034.55 790.52 1060.47 763.522C1077.75 745.703 1091.25 735.443 1114.47 721.944C1131.21 713.304 1156.58 698.725 1159.28 698.185C1158.74 698.185 1158.74 698.185 1159.28 698.185ZM1415.77 744.083C1415.77 744.083 1420.09 746.243 1424.41 748.942C1459.51 769.461 1508.65 788.36 1550.22 798.08L1554 799.16L1548.6 801.86C1526.47 814.279 1454.65 843.978 1381.21 871.516C1370.41 875.296 1360.15 879.616 1357.99 880.156C1355.83 881.236 1354.21 881.236 1354.21 881.236C1354.21 881.236 1356.91 875.296 1360.69 868.276C1381.21 829.938 1401.73 782.961 1412.53 750.562C1414.69 746.782 1415.77 744.083 1415.77 744.083ZM1389.85 752.722C1389.85 752.722 1388.77 756.502 1387.15 760.282C1372.57 794.84 1354.21 832.638 1329.92 875.296C1323.98 886.095 1318.58 894.735 1318.58 894.735C1318.58 894.735 1313.72 892.035 1307.78 888.255C1272.68 866.656 1241.9 840.738 1221.92 814.819L1219.22 811.039L1234.34 806.719C1287.8 792.14 1333.7 776.481 1379.05 757.042C1383.91 754.882 1389.31 752.722 1389.85 752.722ZM1552.38 809.419C1552.38 813.199 1544.29 847.217 1537.27 871.516C1531.33 892.035 1526.47 908.234 1517.29 936.853C1513.51 949.272 1509.73 959.532 1509.73 959.532C1509.73 959.532 1508.65 959.532 1507.57 958.992C1458.97 950.352 1414.69 937.933 1373.65 921.194C1362.31 916.334 1345.58 909.314 1344.5 908.234C1343.96 907.694 1354.21 903.375 1366.63 897.975C1441.69 865.037 1518.91 828.318 1545.91 812.119C1549.14 810.499 1551.84 809.419 1552.38 809.419ZM1177.1 822.379C1177.64 822.919 1156.58 852.617 1127.43 893.655C1117.17 908.234 1105.29 924.973 1100.97 930.913C1096.65 937.393 1089.63 947.112 1085.85 953.052L1078.83 963.852L1071.27 957.372C1062.63 950.352 1047.51 934.693 1040.49 926.053C1026.45 908.234 1016.73 889.875 1012.95 873.136C1011.33 865.037 1011.33 861.257 1012.95 860.717C1015.65 860.177 1059.39 849.917 1100.43 840.198C1123.11 834.798 1149.57 828.858 1159.28 826.158C1169 823.999 1176.56 822.379 1177.1 822.379ZM1198.16 830.478L1203.56 836.418C1227.32 862.877 1251.62 882.316 1280.78 899.595C1286.18 902.295 1289.96 904.995 1289.42 905.535C1288.34 906.614 1187.9 942.253 1140.93 957.912C1115.01 967.091 1093.41 974.651 1092.87 974.651L1089.63 972.491L1086.93 970.331L1091.79 963.312C1107.45 941.173 1126.89 916.334 1169 865.577L1198.16 830.478ZM1329.38 924.434C1329.38 924.434 1336.94 927.133 1345.58 930.373C1367.17 938.473 1383.91 943.333 1406.59 949.272C1434.67 956.292 1475.17 963.312 1498.93 965.472C1502.71 966.012 1504.33 966.011 1503.79 966.551C1502.71 967.091 1478.41 975.191 1460.59 981.131C1432.51 989.77 1346.12 1015.69 1275.38 1035.67C1262.42 1039.45 1251.08 1042.69 1250.54 1042.69C1248.92 1043.23 1243.52 1041.61 1243.52 1041.07C1243.52 1040.53 1247.3 1035.67 1252.16 1030.27C1275.92 1002.19 1299.14 970.331 1319.12 940.633C1324.52 930.913 1329.38 924.434 1329.38 924.434ZM1300.22 924.974C1300.22 924.974 1288.88 943.873 1268.36 976.271C1259.72 989.77 1250 1005.43 1246.22 1010.83C1242.98 1016.23 1238.12 1024.33 1235.42 1029.19L1230.56 1037.83L1227.86 1037.29C1221.92 1035.67 1180.34 1021.09 1169.54 1016.77C1156.04 1011.37 1142.01 1004.89 1131.21 998.95C1118.25 991.93 1101.51 981.131 1103.13 981.131C1103.67 981.131 1125.81 974.651 1153.34 967.631C1225.16 948.192 1265.12 936.853 1291.58 928.213C1295.9 926.053 1300.22 924.974 1300.22 924.974ZM1504.87 973.031C1505.95 974.651 1478.95 1048.63 1469.23 1071.85C1467.07 1077.25 1466.53 1078.33 1464.91 1078.33C1462.21 1078.33 1423.33 1072.93 1400.11 1069.15C1359.07 1062.67 1290.5 1050.79 1273.22 1047.01L1269.44 1045.93L1293.74 1040.53C1346.66 1028.65 1371.49 1022.17 1397.41 1014.61C1429.81 1004.89 1461.67 992.47 1494.07 977.351C1499.47 975.191 1503.79 973.031 1504.87 973.031Z" fill="url(#paint0_linear_826_4)"/>
<path d="M1382.83 0.539964C1379.05 -8.79406e-06 1320.74 21.0589 1282.94 36.1782C1232.18 56.6971 1192.76 76.6762 1168.46 93.9553C1159.28 100.435 1147.95 111.774 1146.33 116.094C1145.79 117.714 1145.25 119.874 1145.25 121.494L1167.38 142.553L1219.76 159.292L1344.5 181.431L1487.05 205.73L1488.67 193.31H1487.59L1468.69 190.61L1464.91 184.131C1445.47 150.112 1423.87 107.455 1411.45 78.836C1401.73 56.6971 1392.55 30.7784 1387.69 12.4194C1384.99 1.07992 1384.45 0.539964 1382.83 0.539964ZM1380.13 8.63956C1380.67 8.63956 1381.21 13.4993 1381.75 18.8991C1384.45 42.1179 1389.85 64.2567 1397.95 88.0156C1403.89 106.375 1403.89 105.295 1396.87 103.135C1380.13 98.2751 1305.08 85.3157 1250.54 77.7561C1241.9 76.6762 1234.34 75.5962 1234.34 75.0562C1233.8 74.5163 1273.76 53.4573 1291.04 45.3577C1313.72 35.0982 1375.81 9.7195 1380.13 8.63956ZM1221.38 82.6158L1227.86 84.7757C1262.96 96.6551 1350.43 113.394 1399.03 117.174C1404.43 117.714 1409.29 118.254 1409.29 118.254C1409.29 118.254 1404.97 120.954 1399.03 123.654C1375.81 135.533 1349.89 149.572 1332.08 160.912C1326.68 164.152 1321.82 166.852 1321.28 166.852C1320.74 166.852 1316.96 166.312 1313.72 165.772L1307.24 164.692L1291.04 148.492C1261.88 120.414 1239.2 98.815 1230.56 90.1755L1221.38 82.6158ZM1214.9 87.4756L1238.12 116.634C1250.54 132.833 1263.5 147.953 1266.2 151.732C1268.9 154.972 1271.06 158.212 1271.06 158.212C1270.52 158.752 1237.58 152.272 1220.3 148.492C1202.48 144.173 1194.92 142.553 1184.12 138.773L1174.94 136.073V133.913C1174.94 123.114 1188.98 106.375 1212.74 89.6355L1214.9 87.4756ZM1411.99 126.894C1412.53 126.894 1413.61 128.514 1415.23 132.833C1420.63 145.253 1438.45 178.191 1442.77 184.671C1443.85 186.831 1446.55 186.831 1423.33 183.051C1367.71 173.871 1349.89 171.171 1349.89 170.631C1349.89 170.631 1351.51 169.551 1353.67 167.932C1370.95 158.212 1388.23 146.333 1403.89 133.373C1407.67 130.133 1410.91 127.434 1411.99 126.894Z" fill="url(#paint1_linear_826_4)"/>
<path d="M1147.41 113.394C1147.41 113.394 1143.63 119.334 1147.41 127.974C1149.57 133.373 1156.04 139.853 1163.06 146.333C1163.06 146.333 1236.5 217.609 1245.14 227.869C1285.64 274.846 1303.46 320.744 1305.08 383.921C1306.16 424.959 1298.6 460.597 1279.16 502.175C1245.14 576.691 1172.78 659.307 1061.55 750.562L1077.75 745.163C1088.01 737.063 1102.59 728.963 1136.07 710.604C1213.82 667.946 1300.76 629.068 1407.67 589.11C1561.56 531.333 1814.81 463.297 1958.98 441.158L1974.1 438.998L1971.94 435.218C1958.98 414.699 1949.8 402.28 1939.01 388.78C1907.69 349.362 1869.35 318.044 1822.37 291.585C1758.11 255.407 1674.42 227.329 1568.58 206.27C1548.6 202.49 1504.87 194.93 1469.23 189.53C1393.63 177.651 1345.04 169.551 1291.58 160.372C1272.14 157.132 1243.52 152.272 1224.62 147.953C1214.9 145.793 1196 141.473 1180.88 136.073C1167.92 132.293 1151.18 127.434 1147.41 113.394ZM1190.06 154.972C1190.06 154.972 1192.76 156.052 1196.54 157.132C1203.02 159.292 1211.12 161.992 1220.3 164.152C1227.32 166.312 1234.88 167.932 1241.9 170.091C1251.62 172.791 1260.26 174.951 1260.26 174.951C1261.34 176.031 1278.08 229.488 1283.48 249.467C1285.64 257.027 1287.26 264.047 1287.26 264.047C1287.26 264.047 1285.1 261.347 1282.94 257.567C1263.5 223.549 1233.26 189.53 1198.16 161.452C1193.3 157.672 1190.06 154.972 1190.06 154.972ZM1271.06 177.111C1272.14 177.111 1275.38 177.651 1279.7 178.731C1307.78 185.211 1357.99 194.39 1389.85 199.79C1395.25 200.87 1399.57 201.41 1399.57 201.95C1399.57 202.49 1397.41 203.57 1395.25 204.65C1389.85 207.35 1367.71 220.309 1360.69 225.169C1342.34 237.588 1326.14 250.547 1314.26 262.427L1305.62 271.066C1305.62 271.066 1304.54 268.366 1304 264.587C1298.06 241.908 1285.64 207.89 1274.3 184.131C1272.14 180.891 1270.52 177.111 1271.06 177.111C1270.52 177.111 1270.52 177.111 1271.06 177.111ZM1413.07 204.11C1414.15 204.65 1415.77 210.049 1419.01 222.469C1424.95 246.228 1427.65 273.226 1427.11 298.065C1426.57 305.085 1426.57 311.564 1426.03 312.104L1425.49 313.724L1416.85 311.024C1399.03 305.625 1370.41 296.985 1346.12 289.965C1332.08 286.186 1320.74 282.946 1320.74 282.406C1320.74 281.326 1341.26 260.807 1349.89 253.247C1366.63 238.668 1411.99 203.57 1413.07 204.11ZM1424.41 205.73C1424.95 205.19 1492.45 217.069 1523.23 223.009C1545.91 227.329 1579.38 234.348 1581.54 235.428C1582.62 235.968 1578.84 237.588 1568.04 242.448C1524.85 261.887 1492.45 279.706 1460.05 300.765C1451.41 306.165 1444.39 311.024 1444.39 311.024C1444.39 311.024 1443.85 306.165 1443.85 300.765C1443.85 269.446 1437.37 238.128 1426.03 211.129C1425.49 208.43 1424.41 206.27 1424.41 205.73ZM1599.36 240.288C1599.9 240.828 1597.74 254.327 1595.58 261.887C1589.64 286.186 1573.44 322.904 1554 356.922C1550.76 362.862 1547.52 367.722 1546.99 368.262C1546.45 368.262 1542.13 366.102 1537.27 362.862C1518.37 351.522 1496.23 341.263 1473.01 331.543C1466.53 328.843 1460.59 326.684 1460.59 326.144C1459.51 325.064 1512.43 289.965 1540.51 273.226C1562.64 259.727 1598.82 239.748 1599.36 240.288ZM1611.78 242.448C1613.4 242.448 1643.1 250.547 1658.76 255.407C1697.64 266.747 1741.92 282.946 1770.53 296.445L1782.41 301.845L1773.77 304.005C1703.04 320.204 1642.56 339.103 1584.24 362.862C1579.38 365.022 1575.06 366.642 1575.06 366.642C1574.52 366.642 1576.14 362.862 1578.3 358.002C1596.12 320.744 1607.46 281.866 1610.16 248.387C1611.24 245.148 1611.78 242.448 1611.78 242.448ZM1313.72 311.024C1314.26 310.484 1336.94 315.884 1349.36 319.664C1368.25 325.064 1407.67 338.023 1407.67 339.103C1407.67 339.103 1403.35 342.883 1397.95 347.743C1376.35 365.562 1355.83 384.461 1331 408.759C1323.44 415.779 1317.5 421.719 1316.96 421.719C1316.42 421.719 1316.42 420.639 1316.42 419.559C1320.2 392.02 1319.12 356.382 1314.26 320.204C1314.26 314.804 1313.72 311.024 1313.72 311.024ZM1794.29 311.564C1794.83 312.104 1783.49 328.843 1777.01 338.563C1767.29 352.602 1752.71 371.501 1719.78 412.539C1702.5 434.138 1683.06 458.977 1676.58 467.076C1670.1 475.176 1664.7 482.196 1664.16 482.196C1664.16 482.196 1662 479.496 1659.3 475.716C1640.94 448.177 1618.8 423.879 1592.88 402.28C1588.02 397.96 1582.62 393.64 1580.46 392.56C1578.84 391.48 1577.22 389.86 1577.22 389.86C1577.22 389.32 1605.3 377.441 1626.36 368.801C1663.62 353.682 1714.38 335.323 1752.17 323.984C1772.69 316.964 1794.29 311.024 1794.29 311.564ZM1807.25 314.804C1807.79 314.804 1812.11 316.424 1816.43 319.664C1856.39 342.343 1895.81 372.041 1926.59 402.28C1935.23 410.919 1956.82 433.058 1956.28 433.598C1956.28 433.598 1948.72 434.138 1940.09 434.678C1870.97 440.078 1782.41 454.657 1697.1 475.176C1691.16 476.256 1686.3 477.876 1685.76 477.876C1685.22 477.876 1691.7 471.396 1699.8 463.837C1750.01 415.779 1772.69 385.001 1799.69 331.003C1803.47 321.824 1806.71 315.344 1807.25 314.804C1806.71 314.804 1806.71 314.804 1807.25 314.804ZM1440.61 352.062C1442.77 352.602 1464.37 362.862 1480.57 370.421C1495.15 377.981 1517.83 389.86 1518.91 390.4C1518.91 390.4 1511.35 394.72 1501.63 399.58C1470.85 415.239 1444.39 429.818 1416.31 446.558C1408.21 451.417 1401.73 455.197 1401.73 455.197C1401.19 455.197 1401.19 454.657 1405.51 446.558C1420.09 419.559 1431.97 387.161 1438.99 355.842C1439.53 353.682 1440.07 352.062 1440.61 352.062ZM1419.55 356.382C1420.09 356.922 1414.69 376.901 1410.91 388.24C1404.43 409.299 1392.55 435.218 1381.75 455.197C1379.05 460.057 1375.27 466.537 1373.11 470.316L1368.79 476.796L1359.61 468.156C1348.82 457.897 1340.18 451.417 1328.84 445.478C1324.52 443.318 1320.74 441.158 1320.74 440.618C1320.74 439.538 1348.82 413.619 1370.41 395.26C1386.07 381.761 1419.01 355.842 1419.55 356.382ZM1550.22 409.839L1558.32 415.239C1576.68 427.119 1598.28 443.318 1615.02 457.357C1624.2 464.917 1642.56 481.116 1646.34 485.436L1648.5 487.595L1635 491.375C1559.4 512.434 1501.63 530.793 1433.59 555.632C1426.03 558.332 1419.55 560.492 1419.01 560.492C1417.93 560.492 1417.39 561.572 1434.13 545.913C1477.33 505.955 1516.21 461.677 1544.83 419.019L1550.22 409.839ZM1515.67 418.479C1516.21 419.019 1493.53 450.337 1480.03 468.696C1463.83 490.295 1435.21 525.934 1415.77 549.152C1407.67 558.872 1400.65 566.971 1400.11 566.971C1399.57 566.971 1399.57 564.812 1399.57 561.032C1399.57 541.053 1394.71 519.994 1385.53 501.635C1381.75 494.075 1381.21 492.455 1381.75 491.375C1384.99 488.675 1432.51 461.137 1463.29 444.938C1483.27 434.138 1515.13 417.939 1515.67 418.479ZM1307.78 469.236C1308.32 469.236 1312.1 471.396 1316.42 473.556C1326.68 479.496 1336.4 485.976 1344.5 492.455C1345.04 492.995 1340.72 496.235 1334.78 500.555C1319.12 511.894 1295.36 529.713 1281.86 540.513C1267.28 551.852 1266.74 552.392 1268.36 549.692C1279.16 532.953 1284.56 523.774 1290.5 511.894C1295.36 501.095 1300.76 488.675 1304.54 477.336C1305.62 473.016 1307.24 469.236 1307.78 469.236ZM1363.39 512.974C1364.47 512.974 1365.01 514.054 1369.87 521.074C1379.05 535.113 1386.61 554.012 1388.23 569.131L1388.77 572.371L1366.09 581.011C1325.6 596.67 1288.34 612.329 1263.5 623.669C1256.48 626.908 1244.06 632.848 1235.96 636.628C1227.86 640.948 1221.38 643.648 1221.38 643.648C1221.38 643.648 1226.24 639.868 1232.72 635.008C1281.86 599.37 1324.52 559.952 1356.37 521.074C1359.61 516.754 1362.85 512.974 1363.39 512.974ZM1338.02 518.914C1338.56 519.454 1319.66 541.053 1307.24 554.012C1275.38 586.411 1244.06 611.789 1205.18 636.628C1200.32 639.868 1196 642.568 1195.46 643.108C1194.38 643.648 1196 642.028 1212.74 623.669C1223.54 611.789 1231.64 602.07 1241.36 590.19C1247.84 582.091 1248.92 581.011 1257.56 574.531C1281.32 556.172 1336.94 518.374 1338.02 518.914Z" fill="url(#paint2_radial_826_4)"/>
<path d="M625.251 1200.36C622.012 1200.36 619.312 1200.9 616.072 1200.9C554.515 1204.14 513.477 1231.14 489.178 1284.06C468.659 1331.57 470.819 1394.21 489.178 1441.73C510.777 1488.71 545.875 1513.54 604.192 1522.72C616.612 1524.88 624.711 1531.36 649.01 1559.44L678.709 1594H732.166L696.528 1558.36C677.089 1538.92 660.89 1521.64 660.89 1520.02C660.89 1518.4 668.449 1515.16 677.629 1512.46C707.867 1503.28 732.706 1480.07 749.985 1444.43C764.024 1415.81 766.184 1407.17 768.344 1371.53C773.744 1265.7 718.127 1199.82 625.251 1200.36ZM672.229 1476.83C646.31 1489.25 608.512 1491.95 583.673 1482.77C558.295 1473.59 533.456 1447.13 522.117 1416.89C509.697 1383.95 511.317 1323.47 525.896 1296.48C548.575 1253.28 578.814 1233.3 622.552 1233.3C687.348 1233.3 724.606 1273.26 729.466 1347.77C733.246 1410.41 712.187 1457.39 672.229 1476.83ZM1596.12 1290.54C1573.44 1290.54 1556.7 1299.71 1544.83 1317.53L1535.65 1331.57V1294.86H1496.77V1515.7H1535.65V1444.97C1535.65 1380.17 1536.19 1372.61 1545.37 1355.33C1557.78 1331.03 1579.38 1319.15 1599.9 1324.55L1613.94 1328.33V1290L1596.12 1290.54ZM1368.25 1288.38C1360.69 1288.38 1352.59 1289.46 1344.5 1291.08C1292.66 1304.57 1263.5 1354.25 1265.12 1405.55C1265.12 1448.21 1273.22 1469.81 1294.28 1492.49C1336.4 1527.04 1374.73 1529.74 1426.57 1511.38C1435.21 1507.6 1444.93 1503.28 1444.93 1503.28V1468.73L1426.57 1478.45C1384.99 1496.81 1353.13 1496.81 1327.76 1475.21C1311.56 1459.01 1304.54 1439.03 1301.3 1416.89H1457.89V1387.19C1457.89 1326.17 1421.17 1287.84 1368.25 1288.38ZM1305.08 1385.57C1305.08 1385.57 1311.02 1347.77 1332.08 1332.65C1342.34 1325.63 1354.21 1321.85 1366.09 1321.85C1377.97 1321.85 1389.31 1325.63 1399.03 1333.19C1418.47 1348.31 1422.25 1385.57 1422.25 1385.57H1305.08ZM368.764 1345.61C326.646 1320.23 307.747 1301.87 310.447 1280.28C316.927 1220.34 390.903 1228.44 431.941 1251.12L432.481 1210.62C432.481 1210.62 409.802 1200.9 377.404 1200.36C327.726 1199.82 295.328 1216.02 280.209 1249.5C258.07 1298.63 277.509 1335.89 348.785 1376.93C388.743 1400.15 406.562 1420.13 406.562 1442.27C406.562 1487.63 352.025 1503.28 295.328 1475.21C283.449 1469.27 273.729 1464.41 273.189 1464.41C271.029 1477.37 272.109 1508.14 272.109 1508.14C272.109 1508.14 289.388 1515.16 315.307 1520.56C380.104 1533.52 438.421 1503.28 444.36 1454.15C448.68 1407.71 431.941 1383.41 368.764 1345.61ZM1940.09 1288.38C1932.53 1288.38 1924.43 1289.46 1916.33 1291.08C1864.49 1304.57 1835.33 1354.25 1836.95 1405.55C1836.95 1448.21 1845.05 1469.81 1866.11 1491.95C1908.23 1526.5 1946.56 1529.74 1998.94 1510.84C2007.58 1507.06 2017.3 1502.74 2017.3 1502.74V1468.19L1998.94 1477.91C1956.82 1496.27 1925.51 1496.27 1900.13 1474.67C1883.93 1458.47 1876.91 1439.03 1873.67 1416.35H2029.72V1386.65C2029.72 1325.63 1993 1287.3 1940.09 1288.38ZM1876.37 1385.03C1876.37 1385.03 1882.31 1347.23 1903.37 1332.11C1913.63 1324.55 1925.51 1321.31 1936.85 1321.31C1948.18 1321.31 1960.06 1325.09 1969.78 1332.65C1989.22 1347.77 1993 1385.03 1993 1385.03H1876.37ZM1164.68 1346.15C1122.57 1320.77 1104.21 1302.41 1106.37 1280.82C1112.85 1220.88 1186.82 1228.98 1227.86 1251.66L1228.4 1211.16C1228.4 1211.16 1205.72 1201.44 1173.32 1200.9C1123.65 1200.36 1091.25 1216.56 1076.13 1250.04C1053.99 1299.17 1073.97 1336.43 1144.71 1377.47C1184.66 1400.69 1201.94 1420.67 1201.94 1442.27C1201.94 1487.63 1147.41 1503.82 1090.71 1475.21C1079.37 1469.27 1069.11 1464.41 1068.57 1464.41C1066.41 1477.37 1067.49 1508.14 1067.49 1508.14C1067.49 1508.14 1084.77 1515.16 1110.69 1520.56C1175.48 1533.52 1233.8 1503.28 1239.74 1454.15C1244.6 1408.25 1227.86 1383.95 1164.68 1346.15ZM2167.95 1290C2145.27 1290 2128 1299.17 2116.66 1316.99L2107.48 1331.03V1294.32H2068.6V1515.16H2107.48V1444.97C2107.48 1380.17 2108.02 1372.61 2117.2 1355.33C2129.62 1331.03 2151.21 1319.15 2171.73 1325.09L2185.77 1328.87V1290.54L2167.95 1290ZM855.82 1345.07V1204.14H816.942V1515.7H981.633V1478.99H856.36L855.82 1345.07ZM1761.35 1388.81L1728.96 1472.51L1698.18 1388.27L1666.86 1294.86H1626.9C1652.82 1368.29 1680.9 1443.35 1709.52 1515.7C1721.94 1516.24 1734.36 1515.7 1746.77 1515.7L1790.51 1406.09L1834.79 1294.32H1796.45C1795.91 1294.86 1779.17 1339.13 1761.35 1388.81ZM946.535 1119.36C953.015 1119.36 957.875 1117.2 962.194 1112.88C966.514 1108.56 968.674 1103.7 968.674 1097.23C968.674 1090.75 966.514 1085.89 962.194 1081.57C957.875 1077.79 953.015 1075.63 946.535 1075.63C940.056 1075.63 934.656 1077.79 930.876 1082.11C926.556 1086.43 924.396 1091.83 924.396 1097.77C924.396 1104.24 926.556 1109.64 930.876 1113.42C934.656 1117.2 940.056 1119.36 946.535 1119.36ZM932.496 1083.19C936.276 1079.41 940.596 1077.79 946.535 1077.79C951.935 1077.79 956.795 1079.41 960.574 1083.19C964.354 1086.97 966.514 1091.29 966.514 1097.23C966.514 1102.62 964.354 1107.48 960.574 1111.26C956.795 1115.04 951.935 1116.66 946.535 1116.66C941.136 1116.66 936.276 1115.04 932.496 1111.26C928.716 1107.48 926.556 1102.62 926.556 1097.23C927.096 1091.83 928.716 1086.97 932.496 1083.19ZM941.675 1099.38H944.375C945.995 1099.38 948.155 1101 949.235 1104.24L952.475 1111.26H957.335L953.555 1103.7C951.935 1100.46 950.315 1098.84 948.695 1098.3C950.855 1097.76 952.475 1097.23 954.095 1095.61C955.175 1094.53 955.715 1092.37 955.715 1090.75C955.715 1088.59 955.175 1086.97 953.555 1085.35C951.935 1083.73 949.235 1083.19 945.455 1083.19H937.356V1111.26H941.136L941.675 1099.38ZM941.675 1086.43H945.455C948.155 1086.43 949.775 1086.97 950.855 1087.51C951.935 1088.05 951.935 1089.13 951.935 1091.29C951.935 1094.53 949.775 1096.15 945.995 1096.15H941.675V1086.43ZM295.328 1096.69C295.328 1086.97 294.788 1079.41 294.788 1075.09C295.868 1079.95 296.948 1083.73 298.028 1086.43L335.826 1170.12H342.306L380.104 1085.35C381.184 1083.19 382.264 1079.41 383.344 1074.55H383.883C383.343 1083.19 382.804 1090.21 382.804 1096.15V1170.12H395.763V1059.97H379.564L344.465 1137.18C343.385 1140.42 341.226 1144.74 339.066 1150.68H338.526C337.986 1147.44 335.826 1143.12 333.666 1137.72L299.648 1060.51H282.369V1170.66H294.788L295.328 1096.69ZM423.301 1097.23H434.641V1165.8H423.301V1097.23ZM428.701 1071.85C430.861 1071.85 433.021 1071.31 434.641 1069.69C436.261 1068.07 437.341 1066.45 437.341 1063.75C437.341 1061.59 436.801 1059.43 434.641 1057.81C433.021 1056.19 430.861 1055.65 428.701 1055.65C426.541 1055.65 424.381 1056.19 422.762 1057.81C421.142 1059.43 420.062 1061.59 420.062 1063.75C420.062 1066.45 420.602 1068.07 422.762 1069.69C424.381 1071.31 426.541 1071.85 428.701 1071.85ZM513.477 1166.88V1155C507.537 1159.32 501.058 1162.02 494.038 1162.02C485.938 1162.02 479.459 1159.32 474.599 1153.92C469.739 1148.52 467.039 1141.5 467.039 1132.32C467.039 1122.6 469.739 1115.04 474.599 1109.64C479.459 1104.24 486.478 1101.54 494.038 1101.54C500.518 1101.54 506.997 1103.7 512.937 1107.48V1093.99C507.537 1091.29 501.598 1090.21 494.578 1090.21C482.159 1090.21 471.899 1093.99 464.879 1102.08C457.86 1109.64 454.08 1120.44 454.08 1133.4C454.08 1144.74 457.32 1154.46 464.339 1161.48C471.359 1169.04 480.539 1172.82 491.338 1172.82C500.518 1172.28 507.537 1170.66 513.477 1166.88ZM545.335 1130.7C545.335 1121.52 547.495 1114.5 551.275 1109.1C555.055 1104.78 558.835 1102.08 564.234 1102.08C568.554 1102.08 571.794 1102.62 573.954 1104.78V1091.83C572.334 1091.29 569.634 1090.75 566.394 1090.75C562.074 1090.75 557.755 1092.37 554.515 1095.07C550.735 1098.31 547.495 1102.62 545.875 1108.56H545.335V1092.37H532.916V1171.2H545.335V1130.7ZM617.692 1172.28C629.571 1172.28 639.291 1168.5 646.31 1160.94C653.33 1153.38 657.11 1143.12 657.11 1130.7C657.11 1117.74 653.87 1108.02 647.39 1100.46C640.911 1092.91 631.731 1089.67 619.852 1089.67C607.972 1089.67 598.253 1093.45 591.233 1099.92C583.673 1107.48 579.894 1118.28 579.894 1131.78C579.894 1143.66 583.133 1153.38 590.153 1160.94C596.633 1168.5 605.812 1172.28 617.692 1172.28ZM599.873 1108.56C604.732 1103.7 611.212 1101 618.772 1101C626.871 1101 632.811 1103.7 637.671 1108.56C641.99 1113.96 644.69 1121.52 644.69 1131.24C644.69 1140.96 642.53 1148.52 638.211 1153.38C633.891 1158.78 627.411 1161.48 619.312 1161.48C611.212 1161.48 604.732 1158.78 599.873 1153.38C595.013 1147.98 592.853 1140.96 592.853 1131.24C592.313 1121.52 594.473 1113.96 599.873 1108.56ZM711.647 1165.8C716.507 1161.48 719.207 1156.08 719.207 1149.6C719.207 1143.66 717.047 1138.8 713.267 1135.02C710.027 1131.78 705.707 1129.08 698.688 1126.38C692.748 1123.68 688.968 1121.52 686.808 1119.9C684.648 1117.74 683.568 1115.58 683.568 1111.8C683.568 1108.56 684.648 1105.86 687.348 1104.24C690.048 1102.08 693.288 1101 697.608 1101C704.627 1101 710.027 1102.62 715.427 1106.4V1093.99C710.567 1091.29 704.627 1090.21 698.688 1090.21C690.588 1090.21 683.568 1092.37 678.709 1096.69C673.309 1101 671.149 1106.4 671.149 1112.88C671.149 1118.82 672.769 1123.68 676.009 1126.92C678.709 1130.16 683.568 1132.86 690.048 1135.56C696.528 1138.26 700.848 1140.96 703.007 1143.12C705.167 1145.28 706.247 1147.44 706.247 1150.68C706.247 1158.24 701.388 1162.02 691.128 1162.02C683.568 1162.02 676.549 1159.32 670.609 1154.46V1167.96C676.009 1171.2 682.488 1172.82 690.048 1172.82C699.228 1172.28 706.787 1170.12 711.647 1165.8ZM771.584 1090.21C759.705 1090.21 749.985 1093.99 742.965 1100.46C735.406 1108.02 731.626 1118.82 731.626 1132.32C731.626 1144.2 734.866 1153.92 741.885 1161.48C748.905 1169.04 758.085 1172.82 769.964 1172.82C781.843 1172.82 791.563 1169.04 798.583 1161.48C805.602 1153.92 809.382 1143.66 809.382 1131.24C809.382 1118.28 806.142 1108.56 799.663 1101C792.643 1093.45 783.463 1090.21 771.584 1090.21ZM796.423 1131.24C796.423 1140.96 794.263 1148.52 789.943 1153.38C785.623 1158.78 779.144 1161.48 771.044 1161.48C762.944 1161.48 756.465 1158.78 751.605 1153.38C746.745 1147.98 744.585 1140.96 744.585 1131.24C744.585 1120.98 747.285 1113.42 752.145 1108.02C757.005 1103.16 763.484 1100.46 771.044 1100.46C778.604 1100.46 785.083 1103.16 789.403 1108.02C794.263 1113.42 796.423 1120.98 796.423 1131.24ZM830.441 1170.66H842.86V1102.62H861.22V1091.83H842.86V1079.95C842.86 1069.15 847.18 1063.21 855.82 1063.21C859.06 1063.21 861.759 1063.75 863.919 1065.37V1054.03C861.759 1052.95 858.52 1052.95 854.74 1052.95C847.72 1052.95 842.32 1055.11 838.001 1059.43C832.601 1064.29 829.901 1070.77 829.901 1079.95V1092.91H816.402V1103.7H829.901L830.441 1170.66ZM882.278 1149.06C882.278 1164.18 889.298 1172.28 902.797 1172.28C907.657 1172.28 911.437 1171.74 914.677 1169.58V1158.78C912.517 1160.4 909.817 1161.48 906.577 1161.48C902.257 1161.48 899.558 1160.4 897.398 1158.24C895.778 1156.08 894.698 1152.3 894.698 1146.9V1102.62H914.677V1091.83H894.698V1068.61C890.378 1070.23 886.058 1071.31 882.278 1072.39V1091.29H868.779V1102.08H882.278V1149.06ZM2234.91 1294.32C2230.59 1290.54 2225.73 1288.38 2219.25 1288.38C2212.77 1288.38 2207.37 1290.54 2203.59 1294.86C2199.27 1299.18 2197.11 1304.57 2197.11 1310.51C2197.11 1316.99 2199.27 1321.85 2203.59 1326.17C2207.91 1329.95 2213.31 1332.11 2219.25 1332.11C2225.73 1332.11 2230.59 1329.95 2234.91 1325.63C2239.23 1321.31 2241.39 1316.45 2241.39 1309.97C2241.93 1303.49 2239.23 1298.1 2234.91 1294.32ZM2233.29 1324.01C2229.51 1327.79 2225.19 1329.41 2219.25 1329.41C2213.85 1329.41 2208.99 1327.79 2205.21 1324.01C2201.43 1320.23 2199.27 1315.37 2199.27 1309.97C2199.27 1304.57 2200.89 1299.71 2204.67 1295.94C2208.45 1292.16 2212.77 1290.54 2218.71 1290.54C2224.11 1290.54 2228.97 1292.16 2232.75 1295.94C2236.53 1299.71 2238.69 1304.57 2238.69 1309.97C2238.69 1315.37 2237.07 1320.23 2233.29 1324.01ZM2221.95 1311.05C2224.11 1310.51 2225.73 1309.43 2227.35 1308.35C2228.43 1307.27 2228.97 1305.11 2228.97 1303.49C2228.97 1301.33 2228.43 1299.71 2226.81 1298.09C2225.19 1296.48 2222.49 1295.94 2218.71 1295.94H2210.61V1324.01H2214.39V1312.13H2217.09C2218.71 1312.13 2220.33 1313.75 2221.95 1316.99L2225.19 1324.01H2230.05L2226.27 1316.45C2224.65 1313.21 2223.03 1311.59 2221.95 1311.05ZM2219.25 1308.35H2214.93V1299.17H2218.71C2221.41 1299.17 2223.03 1299.71 2224.11 1300.25C2225.19 1300.79 2225.19 1301.87 2225.19 1304.03C2224.65 1307.27 2223.03 1308.35 2219.25 1308.35ZM1515.67 1088.59H1519.45V1060.51H1528.63V1056.73H1506.49V1060.51H1515.67V1088.59ZM1536.73 1067.53V1061.05C1536.73 1062.67 1537.27 1063.75 1537.81 1064.29L1548.6 1088.59H1550.22L1561.02 1064.29C1561.56 1063.75 1561.56 1062.67 1562.1 1061.05V1088.59H1565.88V1056.73H1561.56L1551.84 1078.87C1551.84 1079.41 1550.76 1081.03 1550.22 1083.19H1549.68C1549.68 1082.11 1549.14 1081.03 1548.06 1079.41L1538.35 1057.27H1533.49V1089.13H1537.27L1536.73 1067.53Z" fill="#646464"/>
</g>
<defs>
<linearGradient id="paint0_linear_826_4" x1="1144.12" y1="979.478" x2="1222.82" y2="932.978" gradientUnits="userSpaceOnUse">
<stop stop-color="#909CA9"/>
<stop offset="1" stop-color="#EDEDEE"/>
</linearGradient>
<linearGradient id="paint1_linear_826_4" x1="1145.89" y1="103.335" x2="1209.21" y2="103.335" gradientUnits="userSpaceOnUse">
<stop stop-color="#939FAB"/>
<stop offset="1" stop-color="#DCDEE1"/>
</linearGradient>
<radialGradient id="paint2_radial_826_4" cx="0" cy="0" r="1" gradientUnits="userSpaceOnUse" gradientTransform="translate(1465.11 393.351) rotate(-171.457) scale(81.6382 163.317)">
<stop stop-color="#EE352C"/>
<stop offset="1" stop-color="#A91D22"/>
</radialGradient>
<clipPath id="clip0_826_4">
<rect width="2500" height="1594" fill="white"/>
</clipPath>
</defs>
</svg>
