<svg width="2500" height="1518" viewBox="0 0 2500 1518" fill="none" xmlns="http://www.w3.org/2000/svg">
<path d="M901.55 359.859C888.518 353.941 877.237 349.352 868.053 345.898C866.107 331.422 864.716 316.917 863.815 302.37C863.117 290.393 863.547 278.568 864.984 266.937C872.802 268.222 883.888 270.168 897.694 272.845C896.338 289.302 896.212 306.646 897.694 324.968C898.63 336.669 899.908 348.31 901.55 359.859ZM1030.33 435.896C997.386 411.737 966.46 392.992 939.586 378.642C934.141 345.154 931.804 311.979 933.866 280.392C958.723 285.882 988.086 292.958 1020.41 301.947C1018.26 344.181 1022.24 389.609 1030.33 435.896ZM1368.56 453.517C1368.25 457.168 1367.82 460.862 1367.42 464.558C1322.42 488.056 1277.65 519.714 1237.4 562.423C1224.37 576.229 1212.51 590.073 1201.66 603.88C1189.49 588.485 1176.48 572.882 1162.69 557.209C1156.5 550.203 1150.32 543.403 1144.06 536.789C1133.71 467.51 1127.13 399.142 1125.92 335.078C1206.01 363.515 1292.48 402.097 1368.56 453.517Z" fill="#2AC64B"/>
<path d="M911.381 205.522C904.652 225.944 899.751 248.382 897.699 272.845C883.89 270.168 872.807 268.223 864.986 266.937C865.872 259.628 867.165 252.39 868.834 245.276C878.633 234.725 892.834 220.767 911.381 205.522Z" fill="#008A5A"/>
<path d="M1068.1 117.232C1044.41 160.68 1025.42 219.211 1020.64 297.353C1020.56 298.871 1020.49 300.424 1020.41 301.94C988.081 292.953 958.718 285.884 933.868 280.394C933.906 279.342 933.985 278.332 934.055 277.28C937.137 236.322 949.23 198.756 967.509 165.383C995.784 147.919 1029.27 130.96 1068.1 117.232Z" fill="#009550"/>
<path d="M1368.56 453.517C1292.48 402.097 1206.01 363.515 1125.92 335.078C1124.38 258.768 1130.32 188.606 1146.11 130.492C1146.54 128.896 1146.97 127.307 1147.44 125.746C1210.96 163.283 1293.72 205.135 1372.29 223.53C1379.13 292.799 1377.07 371.52 1368.56 453.517Z" fill="#00983E"/>
<path d="M1638.25 302.37C1636.3 334.61 1631.72 366.508 1624.56 398.399C1615.49 398.745 1605.07 399.334 1593.48 400.344C1598.58 375.762 1602.32 350.604 1604.37 324.97C1611.26 238.743 1583.4 173.044 1551.17 127.185C1560.62 129.872 1569.56 132.514 1577.92 135.084C1614.13 180.978 1642.06 239.94 1638.25 302.37ZM1557.74 404.506C1532.5 408.121 1504.02 413.761 1473.96 422.355C1480.85 379.069 1483.84 336.791 1481.42 297.348C1475.94 207.391 1451.59 143.441 1422.93 98.5205C1449.88 102.956 1475.43 108.205 1499 113.728C1536.62 158.15 1563.22 213.567 1568 277.285C1571.04 317.886 1566.68 361.182 1557.74 404.506Z" fill="#009A37"/>
<path d="M1372.29 223.53C1293.72 205.135 1210.95 163.283 1147.44 125.746C1150.79 114.123 1154.55 103.538 1158.67 93.9362C1170.31 91.9527 1182.29 90.3208 1194.62 89.071C1244.25 84.0186 1293.8 84.4841 1340.98 88.3651C1346.54 100.663 1351.63 114.624 1355.96 130.492C1363.65 158.848 1369.02 190.079 1372.29 223.53Z" fill="#00863F"/>
<path d="M1033.08 46.4786C1030.48 48.0776 946.08 100.041 911.379 205.519C892.831 220.762 878.633 234.731 868.842 245.273C891.779 145.773 983.38 64.4897 1033.08 46.4786ZM1086.49 87.5151C1080.15 96.5396 1073.97 106.419 1068.09 117.237C1029.28 130.963 995.79 147.921 967.514 165.388C989.141 125.705 1019.51 91.9148 1053.78 65.112C1061.91 70.9057 1073.03 78.607 1086.49 87.5151Z" fill="#06CBF6"/>
<path d="M1577.93 135.084C1569.56 132.514 1560.62 129.87 1551.17 127.186C1513.08 72.9728 1468.9 46.4381 1468.9 46.4381C1498.22 57.0236 1542.13 89.6985 1577.93 135.084ZM1499 113.728C1475.43 108.203 1449.88 102.956 1422.93 98.5206C1374.58 22.6005 1313.87 1.04752 1310.91 0.0380473C1376.02 13.0701 1447.74 53.2058 1499 113.728ZM1340.98 88.3702C1293.8 84.4766 1244.25 84.0136 1194.62 89.0736C1182.29 90.3159 1170.31 91.9477 1158.67 93.9388C1193.52 11.7544 1250.24 0.00012207 1250.24 0.00012207H1251.83C1251.83 0.00012207 1305.97 11.2003 1340.98 88.3702ZM1191.16 0.040518C1188.36 1.01204 1133.43 20.4981 1086.48 87.5177C1073.03 78.6096 1061.91 70.9082 1053.77 65.1145C1096.59 31.6629 1145.5 9.17886 1191.16 0.040518Z" fill="url(#paint0_linear_826_16)"/>
<path d="M1251.03 1066.42H1309.31L1330.87 972.328H1171.19L1192.75 1066.42H1251.03Z" fill="#666565"/>
<path d="M1732.84 1207.21H1736.45C1738.19 1207.21 1739.37 1206.95 1740 1206.43C1740.63 1205.91 1740.94 1205.24 1740.94 1204.38C1740.94 1203.84 1740.8 1203.34 1740.49 1202.92C1740.18 1202.48 1739.76 1202.16 1739.23 1201.94C1738.68 1201.73 1737.69 1201.63 1736.23 1201.63H1732.84V1207.21ZM1729.85 1217.62V1199.11H1736.21C1738.38 1199.11 1739.95 1199.29 1740.92 1199.63C1741.9 1199.97 1742.67 1200.57 1743.25 1201.42C1743.82 1202.27 1744.12 1203.17 1744.12 1204.13C1744.12 1205.49 1743.64 1206.66 1742.67 1207.66C1741.7 1208.67 1740.42 1209.23 1738.82 1209.35C1739.48 1209.63 1740 1209.95 1740.41 1210.33C1741.15 1211.06 1742.06 1212.28 1743.13 1214L1745.38 1217.62H1741.74L1740.1 1214.71C1738.82 1212.41 1737.77 1210.97 1736.99 1210.4C1736.43 1209.98 1735.63 1209.76 1734.59 1209.76H1732.84V1217.62H1729.85ZM1737.4 1193.76C1734.97 1193.76 1732.63 1194.38 1730.34 1195.62C1728.05 1196.86 1726.27 1198.63 1724.97 1200.93C1723.68 1203.23 1723.03 1205.63 1723.03 1208.12C1723.03 1210.59 1723.67 1212.97 1724.94 1215.24C1726.2 1217.51 1727.98 1219.29 1730.26 1220.55C1732.54 1221.82 1734.91 1222.45 1737.4 1222.45C1739.87 1222.45 1742.25 1221.82 1744.53 1220.55C1746.8 1219.29 1748.58 1217.51 1749.83 1215.24C1751.1 1212.97 1751.72 1210.59 1751.72 1208.12C1751.72 1205.63 1751.09 1203.23 1749.79 1200.93C1748.52 1198.63 1746.73 1196.86 1744.44 1195.62C1742.14 1194.38 1739.79 1193.76 1737.4 1193.76ZM1737.4 1190.91C1740.28 1190.91 1743.09 1191.65 1745.85 1193.13C1748.6 1194.62 1750.74 1196.74 1752.28 1199.5C1753.81 1202.25 1754.58 1205.13 1754.58 1208.12C1754.58 1211.08 1753.82 1213.93 1752.31 1216.67C1750.79 1219.4 1748.67 1221.52 1745.95 1223.03C1743.23 1224.54 1740.37 1225.3 1737.4 1225.3C1734.42 1225.3 1731.56 1224.54 1728.84 1223.03C1726.11 1221.52 1723.98 1219.4 1722.47 1216.67C1720.95 1213.93 1720.19 1211.08 1720.19 1208.12C1720.19 1205.13 1720.96 1202.25 1722.5 1199.5C1724.04 1196.74 1726.19 1194.62 1728.94 1193.13C1731.68 1191.65 1734.51 1190.91 1737.4 1190.91ZM1536.28 1365.87L1573.27 1367.34L1603.42 1230.42L1634.74 1367.34H1672.32L1705.82 1192.84H1677.27L1655.13 1336.45H1649.88L1617.55 1192.84H1591.34L1559.58 1336.45H1555.5L1531.9 1192.84H1501.02L1536.28 1365.87ZM1463.42 1296.84L1441.31 1215.85H1435.19L1413.55 1296.84H1463.42ZM1469.46 1318.97H1407.62L1394.69 1367.34H1364.11L1420.92 1192.84H1456.46L1514.13 1367.34H1482.68L1469.46 1318.97ZM1255.45 1274.99H1292.45C1308.37 1274.99 1321.28 1262.07 1321.28 1246.15V1244.69C1321.28 1228.76 1308.37 1215.85 1292.45 1215.85H1255.45V1274.99ZM1321.28 1367.34L1281.18 1296.84H1255.45V1367.34H1224.57V1192.84H1297.84C1326.07 1192.84 1348.96 1215.73 1348.96 1243.96V1245.71C1348.96 1268.73 1333.74 1288.19 1312.82 1294.6L1354.2 1367.34H1321.28ZM1173.02 1272.79V1287.38C1173.02 1318.83 1147.53 1344.32 1116.07 1344.32H1098.43V1215.85H1116.07C1147.53 1215.85 1173.02 1241.35 1173.02 1272.79ZM1123.63 1192.84H1069.58V1367.34H1123.63C1166.34 1367.34 1200.97 1332.71 1200.97 1289.99V1270.18C1200.97 1227.47 1166.34 1192.84 1123.63 1192.84ZM1042.49 1346.07H1038.42C1034.4 1346.07 1031.14 1342.81 1031.14 1338.79V1193.13H1000.55V1337.91C1000.55 1383.65 1045.4 1368.5 1045.4 1368.5L1042.49 1346.07ZM952.484 1289.55H891.015C891.015 1289.55 896.548 1254.6 921.745 1254.6C946.941 1254.6 952.484 1277.03 952.484 1289.55ZM863.926 1301.93C863.926 1348.69 893.639 1365.01 918.397 1369.95C943.156 1374.91 972.582 1357.14 972.582 1357.14C972.582 1357.14 966.756 1346.66 961.22 1339.37C957.721 1341.69 936.454 1356.56 914.612 1346.07C892.763 1335.58 890.433 1309.07 890.433 1309.07H976.367C981.9 1250.52 950.733 1233.04 923.93 1233.04C898.582 1233.04 863.926 1255.18 863.926 1301.93ZM855.474 1259.55C855.474 1259.55 857.804 1249.93 861.007 1235.37C832.17 1221.68 805.367 1263.04 805.367 1263.04V1235.37H780.905V1366.75H808.866V1286.64C829.84 1249.93 855.474 1259.55 855.474 1259.55ZM734.573 1301.5C734.573 1326.83 719.319 1347.38 700.496 1347.38C681.673 1347.38 666.42 1326.83 666.42 1301.5C666.42 1276.16 681.673 1255.62 700.496 1255.62C719.319 1255.62 734.573 1276.16 734.573 1301.5ZM699.621 1233.04C665.347 1233.04 637.573 1263.69 637.573 1301.5C637.573 1339.3 665.347 1369.95 699.621 1369.95C733.885 1369.95 761.669 1339.3 761.669 1301.5C761.669 1263.69 733.885 1233.04 699.621 1233.04ZM626.934 1345.63C612.422 1361.75 592.59 1371.7 570.713 1371.7C526.23 1371.7 490.173 1330.62 490.173 1279.94C490.173 1229.26 526.23 1188.18 570.713 1188.18C590.464 1188.18 608.549 1196.28 622.57 1209.74L606.494 1230.25C597.338 1220.39 585.468 1214.39 572.463 1214.39C543.581 1214.39 520.171 1243.74 520.171 1279.94C520.171 1316.14 543.581 1345.49 572.463 1345.49C586.591 1345.49 599.39 1338.44 608.797 1327.02L626.934 1345.63Z" fill="#494949"/>
<path d="M1703.42 1507.7C1734.35 1475.28 1751.84 1455.8 1751.84 1438.2C1751.84 1425.84 1745.46 1417.08 1732.32 1417.08C1723.71 1417.08 1716.31 1422.82 1710.45 1430.05L1702.75 1422.17C1711.35 1412.22 1720.63 1405.72 1733.95 1405.72C1752.97 1405.72 1764.83 1418.34 1764.83 1437.57C1764.83 1457.88 1747.12 1478.07 1722.84 1504.9C1728.41 1504.43 1734.81 1503.98 1740.14 1503.98H1769.88V1515.96H1703.42V1507.7ZM1837.37 1461.46C1837.37 1429.74 1829.23 1416.96 1817.27 1416.96C1805.31 1416.96 1797.18 1429.74 1797.18 1461.46C1797.18 1493.18 1805.31 1506.75 1817.27 1506.75C1829.23 1506.75 1837.37 1493.18 1837.37 1461.46ZM1784.3 1461.46C1784.3 1425.17 1796.72 1405.72 1817.27 1405.72C1837.82 1405.72 1850.24 1425.24 1850.24 1461.46C1850.24 1497.74 1837.82 1518 1817.27 1518C1796.72 1518 1784.3 1497.74 1784.3 1461.46ZM1870.04 1504.35H1893.61V1424.68H1874.86V1415.7C1884.24 1413.97 1891.05 1411.34 1896.75 1407.75H1906.88V1504.35H1928.12V1515.97H1870.04V1504.35ZM1945.82 1506.57L1953.2 1497.83C1957.34 1503.08 1963.69 1506.37 1970.12 1506.37C1984.96 1506.37 1997.31 1494.03 1997.31 1457.74C1997.31 1431.14 1989.1 1416.71 1974.34 1416.71C1964.25 1416.71 1956.43 1426.17 1956.43 1440.44C1956.43 1454.53 1962.74 1463.41 1975.47 1463.41C1982.15 1463.41 1990.52 1459.19 1997.6 1448.08L1998.07 1459.11C1991.6 1468.2 1981.98 1473.9 1973.26 1473.9C1955.43 1473.9 1943.92 1462.65 1943.92 1440.44C1943.92 1419.72 1957.81 1405.72 1974.3 1405.72C1994.36 1405.72 2009.48 1422.6 2009.83 1456.53V1458.95C2009.48 1501.31 1991.17 1517.8 1971 1518H1970C1959.27 1517.82 1951.37 1512.93 1945.82 1506.57Z" fill="#009938"/>
<path d="M545.612 1460.38C545.612 1424.47 566.138 1402.58 594.208 1402.58C608.882 1402.58 618.539 1409.57 624.743 1416.31L617.353 1425.53C611.989 1419.7 605.196 1415.03 594.565 1415.03C573.235 1415.03 559.535 1432.27 559.535 1460.01C559.535 1488 572.119 1505.55 594.699 1505.55C602.294 1505.55 609.596 1503.15 613.783 1499V1470.01H591.362V1458.26H626.063V1505.07C619.359 1512.42 608.012 1517.83 594.097 1518H592.997C565.298 1517.78 545.612 1496.36 545.612 1460.38ZM681.799 1465.01L692.359 1457.68L724.66 1515.96H709.397L681.799 1465.01ZM682.523 1457.4C698.998 1457.4 708.058 1450.38 708.058 1435.95C708.058 1421.31 698.998 1416.1 682.523 1416.1H664.77V1457.4H682.523ZM651.303 1404.61H684.458C706.024 1404.61 721.508 1412.75 721.508 1435.95C721.508 1458.19 706.024 1468.9 684.458 1468.9H664.77V1515.96H651.303V1404.61ZM747.233 1470.73H795.973V1482.04H747.233V1470.73ZM764.209 1404.61H779.417L815.226 1515.97H800.955L782.496 1453.77C778.693 1441.32 775.293 1429.1 771.893 1416.24H771.25C767.976 1429.16 764.583 1441.32 760.773 1453.77L742.12 1515.97H728.399L764.209 1404.61ZM858.737 1460.29C877.247 1460.29 886.074 1453.24 886.074 1437.4C886.074 1421.33 876.692 1416.1 858.094 1416.1H843.018V1460.29H858.737ZM829.541 1404.61H859.79C883.503 1404.61 899.515 1413.01 899.515 1437.4C899.515 1460.84 883.592 1471.79 860.422 1471.79H843.018V1515.96H829.541V1404.61ZM920.856 1404.61H934.334V1451.24H983.565V1404.61H997.042V1515.97H983.565V1463.61H934.334V1515.97H920.856V1404.61ZM1026.03 1404.61H1039.51V1515.97H1026.03V1404.61ZM1062.31 1460.38C1062.31 1424.47 1082.43 1402.58 1109.3 1402.58C1122.14 1402.58 1132.22 1409.14 1138.41 1416.31L1131.03 1425.53C1125.46 1419.28 1118.47 1415.03 1109.53 1415.03C1089.53 1415.03 1076.23 1432.27 1076.23 1460.01C1076.23 1488 1088.93 1505.55 1109.01 1505.55C1119.11 1505.55 1126.79 1500.91 1133.54 1493.03L1140.93 1501.93C1132.7 1511.97 1122.53 1517.82 1109.1 1518H1108.04C1081.88 1517.78 1062.31 1496.36 1062.31 1460.38ZM1149.02 1501.47L1157.08 1491.74C1164.71 1500.05 1175.28 1505.54 1186.3 1505.54C1200.19 1505.54 1208.42 1498.27 1208.42 1487.44C1208.42 1476.07 1200.76 1472.45 1190.77 1467.85L1175.56 1460.79C1165.69 1456.37 1154.12 1448.5 1154.12 1432.12C1154.12 1415.12 1168.21 1402.57 1187.45 1402.57C1200 1402.57 1211.19 1408.29 1218.62 1416.36L1211.48 1425.47C1204.99 1419.03 1197.23 1415.02 1187.45 1415.02C1175.58 1415.02 1167.72 1421.33 1167.72 1431.28C1167.72 1442.01 1176.94 1446.03 1185.24 1449.72L1200.33 1456.59C1212.57 1462.12 1222.13 1469.8 1222.13 1486.36C1222.13 1503.87 1208.42 1517.89 1186.31 1518H1185.71C1170.99 1517.9 1158.21 1511.54 1149.02 1501.47ZM1267.43 1501.47L1275.49 1491.74C1283.12 1500.05 1293.7 1505.54 1304.71 1505.54C1318.6 1505.54 1326.83 1498.27 1326.83 1487.44C1326.83 1476.07 1319.17 1472.45 1309.18 1467.85L1293.97 1460.79C1284.11 1456.37 1272.53 1448.5 1272.53 1432.12C1272.53 1415.12 1286.62 1402.57 1305.86 1402.57C1318.4 1402.57 1329.6 1408.29 1337.03 1416.36L1329.89 1425.47C1323.4 1419.03 1315.64 1415.02 1305.86 1415.02C1293.99 1415.02 1286.12 1421.33 1286.12 1431.28C1286.12 1442.01 1295.36 1446.03 1303.65 1449.72L1318.74 1456.59C1330.98 1462.12 1340.54 1469.8 1340.54 1486.36C1340.54 1503.87 1326.84 1517.89 1304.72 1518H1304.12C1289.4 1517.9 1276.61 1511.54 1267.43 1501.47ZM1360.82 1469.98V1404.6H1374.28V1470.37C1374.28 1497.13 1385.04 1505.54 1398.87 1505.54C1412.89 1505.54 1423.96 1497.13 1423.96 1470.37V1404.6H1436.88V1469.98C1436.88 1505.71 1420.47 1518 1398.87 1518C1377.25 1518 1360.82 1505.71 1360.82 1469.98ZM1465.31 1404.61H1478.78V1515.97H1465.31V1404.61ZM1529.77 1416.6H1497.74V1404.61H1575.27V1416.6H1543.25V1515.96H1529.77V1416.6ZM1594.2 1404.61H1655.21V1416.6H1607.67V1451.49H1647.78V1463.49H1607.67V1503.97H1656.84V1515.97H1594.2V1404.61Z" fill="#494949"/>
<path fill-rule="evenodd" clip-rule="evenodd" d="M1030.9 645.225C1042.11 668.412 1052.81 689.103 1062.02 706.372C1077.81 735.933 1092.83 761.048 1108.31 783.924C1112.78 768.251 1118.37 751.722 1125.34 734.602C1113.32 707.032 1101.26 677.427 1089.8 646.581C1064.87 579.571 1042.73 506.687 1030.33 435.893C997.391 411.741 966.465 392.997 939.581 378.647C954.986 473.942 995.471 572.065 1030.9 645.225Z" fill="url(#paint1_linear_826_16)"/>
<path fill-rule="evenodd" clip-rule="evenodd" d="M978.247 644.021C984.592 655.105 991.195 666.262 998.041 677.507C1030.05 729.98 1067.01 778.444 1099.91 817.803C1100.88 813.019 1102.01 808.111 1103.26 803.104C1089.95 784.817 1076.96 766.224 1065.79 748.99C1049.77 724.338 1026.59 688.594 1002.44 644.6C961.055 569.145 916.877 469.426 901.55 359.859C888.52 353.941 877.239 349.362 868.055 345.898C881.282 444.148 918.848 540.559 978.247 644.021Z" fill="url(#paint2_linear_826_16)"/>
<path fill-rule="evenodd" clip-rule="evenodd" d="M1149.85 573.35C1154.01 598.162 1158.88 623.368 1164.12 648.261C1164.63 650.634 1165.13 653 1165.64 655.373C1176.14 638.379 1188.09 621.144 1201.65 603.885C1189.08 587.984 1176.08 572.418 1162.69 557.204C1156.51 550.206 1150.32 543.405 1144.06 536.792C1145.88 548.966 1147.78 561.14 1149.85 573.35Z" fill="url(#paint3_linear_826_16)"/>
<path fill-rule="evenodd" clip-rule="evenodd" d="M1593.48 400.344C1578.66 472.335 1552.54 539.021 1524.77 596.039C1530.38 601.678 1535.87 607.303 1541.17 612.864C1580.74 539.299 1608.87 468.914 1624.56 398.396C1615.49 398.755 1605.07 399.324 1593.48 400.344ZM1473.96 422.363C1468.53 456.735 1460.69 491.735 1451.22 526.436C1467.58 541.194 1485.49 557.725 1503.07 574.689C1525.07 522.151 1545.64 463.275 1557.75 404.501C1532.5 408.126 1504.02 413.766 1473.96 422.363Z" fill="#97CC1A"/>
<path fill-rule="evenodd" clip-rule="evenodd" d="M1237.4 562.416C1224.37 576.225 1212.51 590.076 1201.65 603.885C1248.98 663.701 1284.19 720.563 1309.67 768.127C1318.93 732.353 1328.53 692.753 1337.12 652.187C1342.69 626.01 1347.82 599.483 1352.21 573.35C1358.36 536.863 1363.5 500.423 1367.42 464.561C1322.42 488.052 1277.66 519.72 1237.4 562.416ZM1524.77 596.039C1523.71 598.223 1522.64 600.391 1521.58 602.544C1490.17 665.941 1457.14 716.849 1436.27 748.99C1412.19 786.067 1379.76 829.515 1354.04 862.762C1354.98 865.216 1355.87 867.508 1356.73 869.686C1396.55 826.32 1455.91 756.426 1504.02 677.508C1516.09 657.7 1527.39 638.176 1537.91 618.878C1539.01 616.869 1540.09 614.868 1541.17 612.864C1535.87 607.303 1530.38 601.679 1524.77 596.039ZM1451.22 526.436L1449.98 530.963C1419.47 641.131 1373 747.869 1336.23 821.419C1340.24 830.165 1343.85 838.307 1347.05 845.768C1381.01 805.354 1409 764.431 1440.05 706.373C1457.1 674.406 1479.22 630.839 1500.29 581.267L1503.07 574.689C1485.49 557.725 1467.58 541.194 1451.22 526.436Z" fill="url(#paint4_linear_826_16)"/>
<path fill-rule="evenodd" clip-rule="evenodd" d="M1281.69 917.293C1306.52 891.581 1327.76 868.75 1347.05 845.767C1343.85 838.306 1340.24 830.165 1336.23 821.419C1310.18 873.542 1288.93 909.002 1281.69 917.293Z" fill="url(#paint5_linear_826_16)"/>
<path fill-rule="evenodd" clip-rule="evenodd" d="M1312.16 915.777C1313.48 914.492 1331.06 897.579 1356.73 869.686C1355.87 867.508 1354.98 865.216 1354.04 862.761C1331.06 892.527 1313.51 914.143 1312.16 915.777Z" fill="url(#paint6_linear_826_16)"/>
<path fill-rule="evenodd" clip-rule="evenodd" d="M1165.64 655.373C1194.97 792.554 1235.18 918.383 1235.18 918.383H1266.89C1266.89 918.383 1287.3 854.478 1309.67 768.127C1284.19 720.563 1248.98 663.701 1201.65 603.885C1188.09 621.144 1176.14 638.379 1165.64 655.373Z" fill="url(#paint7_linear_826_16)"/>
<path fill-rule="evenodd" clip-rule="evenodd" d="M1108.31 783.924C1140.36 831.531 1174.15 869.382 1220.37 917.293C1209.6 904.969 1167.9 832.505 1125.34 734.602C1118.37 751.722 1112.78 768.251 1108.31 783.924Z" fill="url(#paint8_linear_826_16)"/>
<path fill-rule="evenodd" clip-rule="evenodd" d="M1099.91 817.803C1148.29 875.712 1187.93 913.832 1189.94 915.778C1187.81 913.136 1144.14 859.457 1103.26 803.104C1102.01 808.111 1100.88 813.019 1099.91 817.803Z" fill="url(#paint9_linear_826_16)"/>
<defs>
<linearGradient id="paint0_linear_826_16" x1="1077.08" y1="60.7149" x2="1546.93" y2="74.9538" gradientUnits="userSpaceOnUse">
<stop stop-color="#0288F7"/>
<stop offset="1" stop-color="#2EE2BD"/>
</linearGradient>
<linearGradient id="paint1_linear_826_16" x1="1113.17" y1="748.995" x2="997.591" y2="463.189" gradientUnits="userSpaceOnUse">
<stop stop-color="#CB1918"/>
<stop offset="0.388" stop-color="#A2183D"/>
<stop offset="0.749" stop-color="#902869"/>
<stop offset="1" stop-color="#73358A"/>
</linearGradient>
<linearGradient id="paint2_linear_826_16" x1="1054.77" y1="772.613" x2="939.191" y2="486.804" gradientUnits="userSpaceOnUse">
<stop stop-color="#CB1918"/>
<stop offset="0.388" stop-color="#A2183D"/>
<stop offset="0.749" stop-color="#902869"/>
<stop offset="1" stop-color="#73358A"/>
</linearGradient>
<linearGradient id="paint3_linear_826_16" x1="1215.23" y1="707.723" x2="1099.65" y2="421.915" gradientUnits="userSpaceOnUse">
<stop stop-color="#CB1918"/>
<stop offset="0.388" stop-color="#A2183D"/>
<stop offset="0.749" stop-color="#902869"/>
<stop offset="1" stop-color="#73358A"/>
</linearGradient>
<linearGradient id="paint4_linear_826_16" x1="1445.05" y1="538.899" x2="1277.33" y2="722.101" gradientUnits="userSpaceOnUse">
<stop stop-color="#ADD816"/>
<stop offset="1" stop-color="#DBD704"/>
</linearGradient>
<linearGradient id="paint5_linear_826_16" x1="1325.92" y1="897.941" x2="1183.15" y2="657.171" gradientUnits="userSpaceOnUse">
<stop stop-color="#E1282B"/>
<stop offset="0.388" stop-color="#E3402A"/>
<stop offset="0.702" stop-color="#E76226"/>
<stop offset="1" stop-color="#F19A0A"/>
</linearGradient>
<linearGradient id="paint6_linear_826_16" x1="1335.04" y1="892.534" x2="1192.26" y2="651.765" gradientUnits="userSpaceOnUse">
<stop stop-color="#E1282B"/>
<stop offset="0.388" stop-color="#E3402A"/>
<stop offset="0.702" stop-color="#E76226"/>
<stop offset="1" stop-color="#F19A0A"/>
</linearGradient>
<linearGradient id="paint7_linear_826_16" x1="1310.76" y1="906.927" x2="1167.99" y2="666.158" gradientUnits="userSpaceOnUse">
<stop stop-color="#E1282B"/>
<stop offset="0.388" stop-color="#E3402A"/>
<stop offset="0.702" stop-color="#E76226"/>
<stop offset="1" stop-color="#F19A0A"/>
</linearGradient>
<linearGradient id="paint8_linear_826_16" x1="1232.06" y1="953.596" x2="1089.29" y2="712.826" gradientUnits="userSpaceOnUse">
<stop stop-color="#E1282B"/>
<stop offset="0.388" stop-color="#E3402A"/>
<stop offset="0.702" stop-color="#E76226"/>
<stop offset="1" stop-color="#F19A0A"/>
</linearGradient>
<linearGradient id="paint9_linear_826_16" x1="1205.68" y1="969.241" x2="1062.91" y2="728.469" gradientUnits="userSpaceOnUse">
<stop stop-color="#E1282B"/>
<stop offset="0.388" stop-color="#E3402A"/>
<stop offset="0.702" stop-color="#E76226"/>
<stop offset="1" stop-color="#F19A0A"/>
</linearGradient>
</defs>
</svg>
